<svg xmlns="http://www.w3.org/2000/svg" viewBox="0 0 120 120" role="img" aria-labelledby="title"><title id="title">Logo Tuntun Sholat</title><defs><linearGradient id="g" x1="0" y1="0" x2="1" y2="1"><stop stop-color="#0A8968"/><stop offset="1" stop-color="#075A45"/></linearGradient></defs><path d="M60 5 75 18l20-1 3 20 14 14-12 16 2 20-20 4-13 16-17-11-20 4-5-19L10 69l9-18-3-20 20-4L47 9z" fill="url(#g)" stroke="#D8B45B" stroke-width="4"/><path d="M35 77h50v8H35zM42 76V54l18-18 18 18v22z" fill="#FFF9EF"/><path d="M52 76V62a8 8 0 0 1 16 0v14z" fill="#087A5B"/><path d="M60 25a13 13 0 1 0 13 13A10 10 0 1 1 60 25z" fill="#F7D67E"/></svg>